<svg width="48" height="48" viewBox="0 0 48 48" fill="none" xmlns="http://www.w3.org/2000/svg">
<circle cx="24" cy="24" r="24" fill="white" fill-opacity="0.85"/>
<g clip-path="url(#clip0_68_122)">
<path fill-rule="evenodd" clip-rule="evenodd" d="M26.8369 24.4795L28.7266 24.0107L29.4824 23.624L30.9297 21.9687C31.055 21.8808 31.2053 21.8354 31.3583 21.8393C31.5114 21.8432 31.6591 21.8961 31.7798 21.9902C31.9006 22.0844 31.9879 22.2148 32.0289 22.3623C32.07 22.5098 32.0625 22.6666 32.0078 22.8095L31.0381 24.3095C30.5254 25.1064 30.6308 24.9453 29.7666 25.3584C29.2715 25.5986 28.6797 25.8506 28.1172 26.0586L30.3203 27.8808C31.2432 27.7549 32.1396 27.5879 33.0478 27.456C34.0879 27.3037 34.1084 27.4385 34.873 28.042L38.4531 30.8369C39.3994 31.6719 38.6846 32.5332 37.835 32.3808L34.4863 30.0136C33.7422 29.4892 33.874 29.5537 32.9717 29.8935C31.9463 30.2802 30.8037 30.8164 29.7168 30.7724C28.3867 30.7197 28.0937 29.9463 27.1826 29.1553C26.6437 28.7411 26.1619 28.2574 25.75 27.7168C25.5244 27.3681 25.2871 27.084 25.1435 26.7998C25.0509 26.64 25.0022 26.4586 25.0022 26.2739C25.0022 26.0892 25.0509 25.9078 25.1435 25.748C25.5215 25.0244 25.7617 24.7226 26.8486 24.4795H26.8369ZM17.6933 19.2939V34.0771H18.6894L20.8633 32.6679H19.709V31.2031H25.9023L21.8769 26.747L22.9609 25.7715L27.8682 31.209H33.7861C33.8907 31.2085 33.9942 31.2308 34.0893 31.2743C34.1844 31.3178 34.2689 31.3815 34.3369 31.4609L38.9482 34.0801H43V36.081H7.11718V34.0771H16.126V19.2939H7.56835C7.41862 19.2939 7.27494 19.2349 7.16852 19.1295C7.0621 19.0242 7.00153 18.8811 6.99999 18.7314C6.99861 18.7129 6.99861 18.6943 6.99999 18.6758C6.97456 17.5707 7.23492 16.4778 7.75585 15.5029C11.8223 8.16111 21.4785 8.04099 25.8965 15.2773C26.5165 16.3198 26.8217 17.5194 26.7754 18.7314C26.7754 18.8791 26.7173 19.0209 26.6137 19.1261C26.5102 19.2313 26.3693 19.2916 26.2217 19.2939H17.6933ZM20.6611 34.0801H36.8828L33.4873 32.6709H22.835L20.6611 34.0801ZM20.2158 11.7148C21.4785 13.54 22.1084 15.9746 22.1377 18.1601H25.6357C25.457 15.4853 22.6475 12.8193 20.2158 11.7148ZM18.5576 10.997C18.2027 10.9356 17.8448 10.8936 17.4853 10.8711V18.166H21.001C20.9805 16.499 19.9434 11.8877 18.5517 10.997H18.5576ZM16.3457 10.8681C15.9913 10.8877 15.6382 10.9268 15.2881 10.9853C13.876 11.8789 12.8594 16.4814 12.8242 18.1631H16.3398V10.8681H16.3457ZM13.6357 11.6767C11.1865 12.7871 8.33886 15.3828 8.15429 18.166H11.6875C11.7109 16.001 12.3555 13.4785 13.6269 11.6855L13.6357 11.6767ZM24.7978 20.7851C24.4367 20.8192 24.0937 20.9596 23.8124 21.1887C23.531 21.4177 23.3239 21.725 23.2172 22.0717C23.1105 22.4185 23.1091 22.7891 23.2131 23.1366C23.3171 23.4842 23.5218 23.7931 23.8014 24.0243C24.0809 24.2555 24.4228 24.3986 24.7837 24.4355C25.1446 24.4724 25.5083 24.4014 25.8289 24.2315C26.1494 24.0617 26.4124 23.8005 26.5845 23.4812C26.7567 23.1618 26.8302 22.7986 26.7959 22.4375C26.7491 21.9538 26.5126 21.5083 26.1381 21.1986C25.7637 20.8889 25.2817 20.7402 24.7978 20.7851Z" fill="#4F78BD"/>
</g>
<defs>
<clipPath id="clip0_68_122">
<rect width="36" height="36" fill="white" transform="translate(7 5)"/>
</clipPath>
</defs>
</svg>
