<svg width="48" height="48" viewBox="0 0 48 48" fill="none" xmlns="http://www.w3.org/2000/svg">
<circle cx="24" cy="24" r="24" fill="white" fill-opacity="0.85"/>
<path d="M13.6312 26.7319C12.7312 26.7319 11.8828 27.1008 11.241 27.7647C10.6066 28.4287 10.2525 29.2918 10.2525 30.2065C10.2525 32.0877 11.7648 33.6147 13.6312 33.6147C15.4976 33.6147 17.0098 32.0877 17.0098 30.2065C17.0098 29.2918 16.6557 28.4213 16.0213 27.7647C15.3795 27.1008 14.5312 26.7319 13.6312 26.7319ZM13.6312 32.1393C12.5836 32.1393 11.7279 31.2762 11.7279 30.2065C11.7279 29.1221 12.5984 28.2073 13.6312 28.2073C14.6639 28.2073 15.5344 29.1221 15.5344 30.2065C15.5344 31.2688 14.6787 32.1393 13.6312 32.1393Z" fill="#4F78BD"/>
<path d="M32.3689 26.7319C30.5394 26.7319 29.0492 28.2885 29.0492 30.2065C29.0492 32.1172 30.5098 33.6147 32.3689 33.6147C34.2279 33.6147 35.7476 32.0877 35.7476 30.2065C35.7476 29.2918 35.3935 28.4213 34.759 27.7647C34.1172 27.1008 33.2689 26.7319 32.3689 26.7319ZM32.3689 32.1393C31.3361 32.1393 30.5246 31.2909 30.5246 30.2065C30.5246 29.1 31.3508 28.2073 32.3689 28.2073C33.4017 28.2073 34.2721 29.1221 34.2721 30.2065C34.2721 31.2688 33.4164 32.1393 32.3689 32.1393Z" fill="#4F78BD"/>
<path d="M26.7254 29.0927H19.282C18.8762 29.0927 18.5443 29.4246 18.5443 29.8304C18.5443 30.2361 18.8762 30.5681 19.282 30.5681H26.7254C27.1311 30.5681 27.4631 30.2361 27.4631 29.8304C27.4631 29.4246 27.1311 29.0927 26.7254 29.0927Z" fill="#4F78BD"/>
<path d="M14.7008 21.2508V16.5885C14.7008 16.1828 14.3688 15.8508 13.9631 15.8508H9.46311C9.05737 15.8508 8.7254 16.1828 8.7254 16.5885V21.2508C8.7254 21.6566 9.05737 21.9885 9.46311 21.9885H13.9631C14.3688 21.9885 14.7008 21.6639 14.7008 21.2508ZM13.2254 20.5131H10.2008V17.3262H13.2254V20.5131Z" fill="#4F78BD"/>
<path d="M22.9852 21.2508V16.5885C22.9852 16.1828 22.6533 15.8508 22.2475 15.8508H17.7475C17.3418 15.8508 17.0098 16.1828 17.0098 16.5885V21.2508C17.0098 21.6566 17.3418 21.9885 17.7475 21.9885H22.2475C22.6533 21.9885 22.9852 21.6639 22.9852 21.2508ZM21.5098 20.5131H18.4852V17.3262H21.5098V20.5131Z" fill="#4F78BD"/>
<path d="M30.4729 21.9885C30.886 21.9885 31.2106 21.6639 31.2106 21.2508V16.5885C31.2106 16.1828 30.8787 15.8508 30.4729 15.8508H25.9729C25.5672 15.8508 25.2352 16.1828 25.2352 16.5885V21.2508C25.2352 21.6566 25.5672 21.9885 25.9729 21.9885H30.4729ZM26.7106 17.3262H29.7352V20.5131H26.7106V17.3262Z" fill="#4F78BD"/>
<path d="M40.2623 12H5.7377C5.33197 12 5 12.332 5 12.7377V29.8303C5 30.2361 5.33197 30.568 5.7377 30.568H8.74016C9.1459 30.568 9.47787 30.2361 9.47787 29.8303C9.47787 29.4246 9.1459 29.0926 8.74016 29.0926H6.47541V25.9057H7.17623C7.58197 25.9057 7.91393 25.5738 7.91393 25.168C7.91393 24.7623 7.58197 24.4303 7.17623 24.4303H6.47541V13.4754H39.5246V15.1057H34.2574C34.0287 15.1057 33.8148 15.209 33.6746 15.3861C33.5344 15.5631 33.4828 15.7992 33.5344 16.0131L35.032 22.232C35.1131 22.5639 35.4082 22.8 35.7475 22.8H39.5098V24.4303H38.75C38.3443 24.4303 38.0123 24.7623 38.0123 25.168C38.0123 25.5738 38.3443 25.9057 38.75 25.9057H39.5246V29.0926H37.2598C36.8541 29.0926 36.5221 29.4246 36.5221 29.8303C36.5221 30.2361 36.8541 30.568 37.2598 30.568H40.2623C40.668 30.568 41 30.2361 41 29.8303V12.7377C41 12.332 40.668 12 40.2623 12ZM39.5246 21.3246H36.3377L35.1943 16.5812H39.5246V21.3246Z" fill="#4F78BD"/>
</svg>
