<svg width="24" height="24" viewBox="0 0 24 24" fill="none" xmlns="http://www.w3.org/2000/svg">
<path d="M3.62163 2.85999C2.50518 2.85999 1.59052 3.77465 1.59052 4.8911V19.3628C1.59052 20.3386 2.39194 21.14 3.36774 21.14H20.6322C21.608 21.14 22.4094 20.3386 22.4094 19.3628V7.68387C22.4094 6.70808 21.608 5.90665 20.6322 5.90665H19.3627V3.36776C19.3627 3.10189 19.1208 2.86001 18.855 2.85999H3.62163ZM3.62163 3.87554H18.3472V5.90665H3.62163C3.05022 5.90665 2.60607 5.4625 2.60607 4.8911C2.60607 4.31969 3.05022 3.87554 3.62163 3.87554ZM2.60607 6.6445C2.90538 6.81882 3.25237 6.92221 3.62163 6.92221C9.34025 6.91713 15.717 6.92221 20.6322 6.92221C21.0629 6.92221 21.3939 7.25313 21.3939 7.68387V10.7305H14.0311C13.3366 10.7305 12.7616 11.3055 12.7616 12V15.0467C12.7616 15.7411 13.3366 16.3161 14.0311 16.3161H21.3939V19.3628C21.3939 19.7935 21.0629 20.1244 20.6322 20.1244H3.36774C2.93699 20.1244 2.60607 19.7935 2.60607 19.3628V6.6445ZM14.0311 11.7461H21.3939V15.3005H14.0311C13.8816 15.3005 13.7772 15.1961 13.7772 15.0467V12C13.7772 11.8505 13.8816 11.7458 14.0311 11.7461ZM16.57 12.5078C16.0091 12.5078 15.5544 12.9625 15.5544 13.5233C15.5544 14.0842 16.0091 14.5389 16.57 14.5389C17.1308 14.5389 17.5855 14.0842 17.5855 13.5233C17.5855 12.9625 17.1308 12.5078 16.57 12.5078Z" fill="#3161B2" fill-opacity="0.5"/>
<path d="M21.2939 7.68387V10.6305H14.0311C13.2814 10.6305 12.6616 11.2503 12.6616 12V15.0467C12.6616 15.7964 13.2814 16.4161 14.0311 16.4161H21.2939V19.3628C21.2939 19.7383 21.0077 20.0244 20.6322 20.0244H3.36774C2.99222 20.0244 2.70607 19.7383 2.70607 19.3628V6.81084C2.98347 6.94477 3.29402 7.02221 3.62163 7.02221H3.62172C7.52281 7.01874 11.7301 7.02001 15.5709 7.02116C17.3602 7.02169 19.07 7.02221 20.6322 7.02221C21.0077 7.02221 21.2939 7.30836 21.2939 7.68387ZM14.0309 11.8461H14.0311H21.2939V15.2005H14.0311C13.9803 15.2005 13.9431 15.1832 13.9188 15.1589C13.8945 15.1347 13.8772 15.0975 13.8772 15.0467V12C13.8772 11.9492 13.8945 11.9119 13.9188 11.8876C13.9431 11.8633 13.9802 11.846 14.0309 11.8461ZM3.62163 2.75999C2.44995 2.75999 1.49052 3.71942 1.49052 4.8911V19.3628C1.49052 20.3938 2.33671 21.24 3.36774 21.24H20.6322C21.6632 21.24 22.5094 20.3938 22.5094 19.3628V7.68387C22.5094 6.65285 21.6632 5.80665 20.6322 5.80665H19.4627V3.36776C19.4627 3.04666 19.1761 2.76002 18.855 2.75999H3.62163ZM3.62163 3.97554H18.2472V5.80665H3.62163C3.10545 5.80665 2.70607 5.40727 2.70607 4.8911C2.70607 4.37492 3.10545 3.97554 3.62163 3.97554ZM16.57 12.4078C15.9539 12.4078 15.4544 12.9072 15.4544 13.5233C15.4544 14.1394 15.9539 14.6389 16.57 14.6389C17.1861 14.6389 17.6855 14.1394 17.6855 13.5233C17.6855 12.9072 17.1861 12.4078 16.57 12.4078Z" stroke="#3161B2" stroke-opacity="0.5" stroke-width="0.2"/>
</svg>
